<svg xmlns="http://www.w3.org/2000/svg" viewBox="0 0 1440 320">
  <path fill="#ffffff" fill-opacity="1" d="M0,128L26.7,144C53.3,160,107,192,160,186.7C213.3,181,267,139,320,144C373.3,149,427,203,480,208C533.3,213,587,171,640,176C693.3,181,747,235,800,240C853.3,245,907,203,960,197.3C1013.3,192,1067,224,1120,245.3C1173.3,267,1227,277,1280,250.7C1333.3,224,1387,160,1413,128L1440,96L1440,320L1413.3,320C1386.7,320,1333,320,1280,320C1226.7,320,1173,320,1120,320C1066.7,320,1013,320,960,320C906.7,320,853,320,800,320C746.7,320,693,320,640,320C586.7,320,533,320,480,320C426.7,320,373,320,320,320C266.7,320,213,320,160,320C106.7,320,53,320,27,320L0,320Z"></path>
</svg>